<?xml version="1.0" standalone="no"?>
<!DOCTYPE svg PUBLIC "-//W3C//DTD SVG 20010904//EN"
 "http://www.w3.org/TR/2001/REC-SVG-20010904/DTD/svg10.dtd">
<svg version="1.0" xmlns="http://www.w3.org/2000/svg"
 width="1192.000000pt" height="1192.000000pt" viewBox="0 0 1192.000000 1192.000000"
 preserveAspectRatio="xMidYMid meet">
<metadata>
Created by potrace 1.14, written by Peter Selinger 2001-2017
</metadata>
<g transform="translate(0.000000,1192.000000) scale(0.100000,-0.100000)"
fill="#000000" stroke="none">
<path d="M6386 8029 c-49 -10 -101 -22 -115 -28 -14 -5 -35 -13 -46 -17 -11
-4 -23 -8 -27 -8 -14 -2 -68 -47 -68 -57 0 -10 -52 -154 -81 -224 -7 -16 -13
-32 -14 -35 -5 -15 -19 -49 -31 -77 -8 -17 -14 -38 -14 -47 0 -9 -5 -16 -11
-16 -5 0 -8 -4 -4 -9 3 -5 1 -12 -5 -16 -5 -3 -10 -17 -10 -30 0 -13 -4 -26
-9 -29 -5 -3 -11 -16 -15 -29 -3 -13 -13 -41 -22 -63 -10 -21 -19 -43 -20 -49
-1 -5 -8 -23 -15 -40 -7 -16 -13 -32 -13 -35 -4 -14 -60 -159 -72 -184 -8 -16
-14 -32 -14 -36 0 -4 -8 -25 -17 -46 -9 -22 -17 -43 -18 -49 -1 -5 -8 -26 -17
-45 -18 -42 -31 -73 -32 -80 -2 -9 -77 -204 -88 -230 -6 -14 -12 -29 -14 -35
-3 -15 -43 -115 -59 -152 -8 -17 -15 -33 -15 -36 0 -3 -5 -18 -12 -34 -6 -15
-12 -30 -12 -33 -1 -6 -63 -165 -76 -195 -5 -11 -28 -72 -53 -135 -24 -63 -48
-124 -52 -135 -5 -11 -9 -22 -9 -25 -1 -5 -17 -46 -41 -105 -7 -16 -24 -59
-39 -95 -14 -36 -26 -71 -26 -78 0 -7 -30 -26 -67 -43 -106 -48 -263 -126
-322 -159 -146 -83 -331 -207 -331 -222 0 -4 -5 -8 -11 -8 -9 0 -33 -21 -140
-123 -16 -15 -29 -32 -29 -37 0 -6 -4 -10 -9 -10 -4 0 -27 -27 -50 -59 -67
-96 -113 -192 -126 -263 -3 -13 -9 -44 -13 -70 -14 -73 -7 -236 12 -303 40
-135 122 -251 224 -316 17 -11 32 -25 32 -30 0 -26 135 -159 197 -194 101 -56
257 -76 408 -50 61 10 209 56 216 67 3 5 10 10 15 10 32 1 135 70 157 105 4 7
19 23 31 36 43 41 164 208 172 237 10 34 18 50 25 50 5 0 8 3 7 8 -1 6 9 31
57 137 7 16 25 64 39 105 15 41 31 84 36 95 10 24 111 303 115 319 1 6 8 25
14 41 7 17 31 79 52 140 22 60 43 112 47 116 4 3 48 18 97 33 50 16 108 34
130 42 64 21 297 92 328 100 25 6 27 4 28 -27 0 -19 2 -47 4 -64 3 -16 7 -59
10 -95 9 -114 22 -238 30 -295 3 -22 8 -60 10 -85 13 -108 15 -126 21 -150 3
-14 8 -38 11 -55 8 -50 41 -176 63 -239 50 -139 112 -230 204 -300 28 -21 60
-52 70 -70 25 -41 135 -147 172 -166 16 -8 36 -20 44 -26 8 -7 18 -13 22 -14
4 0 13 -2 20 -5 99 -30 137 -37 242 -39 65 -2 178 11 231 27 47 14 152 51 160
57 21 15 125 69 125 65 0 -3 9 4 20 15 11 11 27 20 35 20 8 0 15 4 15 9 0 4
18 21 41 35 105 70 319 277 420 407 19 24 37 46 40 49 16 14 149 191 149 199
0 5 7 12 16 15 19 7 16 49 -8 94 -10 18 -18 36 -18 41 0 5 -10 30 -22 57 -12
27 -23 51 -23 54 -3 9 -17 44 -32 80 -51 118 -56 121 -97 60 -14 -22 -30 -40
-34 -40 -4 0 -22 39 -41 88 -19 48 -44 109 -57 137 l-22 50 -13 -28 c-7 -15
-16 -27 -21 -27 -4 0 -8 -6 -8 -14 0 -8 -4 -16 -8 -18 -5 -1 -22 -23 -39 -48
-18 -25 -43 -58 -57 -75 -14 -16 -40 -48 -58 -69 -52 -61 -187 -193 -258 -250
-121 -98 -262 -184 -292 -178 -5 1 -8 -2 -8 -7 0 -5 -13 -11 -30 -13 -34 -5
-36 -1 -45 87 -3 33 -7 80 -10 105 -3 25 -7 77 -10 115 -3 39 -8 97 -11 130
-3 33 -7 83 -9 110 -14 186 -21 267 -31 360 -3 28 -7 79 -10 115 -7 107 -13
182 -19 240 -3 30 -8 91 -11 135 -2 44 -7 96 -9 115 -3 19 -7 73 -10 120 -3
47 -8 102 -10 122 -3 20 -8 70 -10 110 -7 106 -14 196 -20 254 -3 28 -7 87
-10 130 -3 44 -7 102 -10 129 -3 28 -7 82 -10 120 -3 39 -8 99 -11 135 -3 36
-7 92 -9 125 -3 33 -7 94 -11 135 -6 80 -11 142 -20 285 -7 115 -11 186 -13
205 -2 24 -51 48 -126 60 -39 7 -73 15 -77 19 -4 3 -8 36 -9 73 -2 70 -3 71
-54 84 -5 2 -21 6 -35 10 -14 3 -128 7 -255 8 -185 2 -248 -1 -319 -15z m60
-1694 c6 -105 15 -224 28 -352 2 -17 0 -36 -3 -41 -6 -8 -154 -61 -186 -66 -8
-1 -18 -5 -21 -9 -4 -4 -14 -7 -22 -7 -11 0 -12 3 -3 14 6 7 17 33 25 57 21
67 66 192 76 214 12 25 58 158 72 208 14 51 30 42 34 -18z m-1681 -1912 c-19
-37 -50 -67 -38 -37 4 10 15 28 25 38 10 11 18 24 18 30 0 5 2 7 5 4 3 -2 -2
-19 -10 -35z"/>
</g>
</svg>
