<svg width="98.60007324218749px" height="149px" xmlns="http://www.w3.org/2000/svg" viewBox="200.69996337890626 0.5 98.60007324218749 149" style="background: rgba(0, 0, 0, 0);" preserveAspectRatio="xMidYMid"><defs><filter id="editing-extrusion" x="-100%" y="-100%" width="300%" height="300%"><feFlood result="color1" flood-color="#d1dfea"></feFlood><feConvolveMatrix order="5,5" divisor="1" kernelMatrix="1 0 0 0 0 0 1 0 0 0 0 0 1 0 0 0 0 0 1 0 0 0 0 0 1" in="SourceAlpha" result="extrude"></feConvolveMatrix><feComposite in="color1" in2="extrude" result="comp-extrude" operator="in"></feComposite><feOffset dx="2.5" dy="2.5" in="comp-extrude" result="offset-extrude"></feOffset><feMerge><feMergeNode in="offset-extrude"></feMergeNode><feMergeNode in="SourceGraphic"></feMergeNode></feMerge></filter></defs><g filter="url(#editing-extrusion)"><g transform="translate(224.24857378005981, 101.49500274658203)"><path d="M41.95 0.14L41.95 0.14L41.95 0.14Q38.09 0.14 36.12-2.38L36.12-2.38L36.12-2.38Q34.16-4.90 33.47-11.80L33.47-11.80L33.47-11.80Q33.05-15.39 32.64-21.11L32.64-21.11L32.64-21.11Q27.81-19.67 22.91-18.08L22.91-18.08L20.56-11.59L20.56-11.59Q19.87-9.73 19.60-8.94L19.60-8.94L19.60-8.94Q19.32-8.14 18.60-6.56L18.60-6.56L18.60-6.56Q17.87-4.97 17.35-4.24L17.35-4.24L17.35-4.24Q16.84-3.52 15.90-2.42L15.90-2.42L15.90-2.42Q14.97-1.31 14.01-0.83L14.01-0.83L14.01-0.83Q11.52 0.41 8.69 0.41L8.69 0.41L8.69 0.41Q5.87 0.41 4.11-1.62L4.11-1.62L4.11-1.62Q2.35-3.66 2.35-6.62L2.35-6.62L2.35-6.62Q2.35-7.45 2.48-8.35L2.48-8.35L2.48-8.35Q3.38-14.97 16.08-20.42L16.08-20.42L16.08-20.42Q19.67-29.60 28.01-51.34L28.01-51.34L28.01-51.34Q30.22-52.58 33.60-52.58L33.60-52.58L33.60-52.58Q34.36-52.58 35.05-52.58L35.05-52.58L35.05-52.58Q35.74-52.58 36.74-52.58L36.74-52.58L36.74-52.58Q37.74-52.58 39.26-52.16L39.26-52.16L39.26-52.16Q39.33-48.92 42.44-11.94L42.44-11.94L42.44-11.94Q42.71-8.83 43.19-7.90L43.19-7.90L43.19-7.90Q43.68-6.97 44.85-6.97L44.85-6.97L44.85-6.97Q46.78-6.97 49.99-9.59L49.99-9.59L49.99-9.59Q53.20-12.21 55.75-16.15L55.75-16.15L57.68-11.45L56.03-9.25L56.03-9.25Q48.78 0.14 41.95 0.14ZM32.15-26.22L30.98-40.57L24.98-23.81L24.98-23.81Q29.81-25.46 32.15-26.22L32.15-26.22ZM13.66-14.42L13.66-14.42Q7.25-11.18 7.25-8.07L7.25-8.07L7.25-8.07Q7.25-5.87 8.90-5.87L8.90-5.87L8.90-5.87Q10.14-5.87 10.90-7.66L10.90-7.66L10.90-7.66Q11.80-9.59 13.66-14.42L13.66-14.42Z" fill="#2f1f49"></path></g></g><style>text {
  font-size: 64px;
  font-family: Arial Black;
  dominant-baseline: central;
  text-anchor: middle;
}</style></svg>