<svg width="230" height="292" viewBox="0 0 244 292" fill="none" xmlns="http://www.w3.org/2000/svg">
<path d="M29 193H0.272728V99.9091H30.2727C39.303 99.9091 47.0303 101.773 53.4545 105.5C59.8788 109.197 64.803 114.515 68.2273 121.455C71.6515 128.364 73.3636 136.636 73.3636 146.273C73.3636 155.97 71.6364 164.318 68.1818 171.318C64.7273 178.288 59.697 183.652 53.0909 187.409C46.4849 191.136 38.4545 193 29 193ZM11.5455 183H28.2727C35.9697 183 42.3485 181.515 47.4091 178.545C52.4697 175.576 56.2424 171.348 58.7273 165.864C61.2121 160.379 62.4545 153.848 62.4545 146.273C62.4545 138.758 61.2273 132.288 58.7727 126.864C56.3182 121.409 52.6515 117.227 47.7727 114.318C42.8939 111.379 36.8182 109.909 29.5455 109.909H11.5455V183ZM101.545 99.9091V193H90.8182V99.9091H101.545Z" fill="#2F1F49" fill-opacity="0.8"/>
<rect x="123" width="24" height="292" fill="#addffb" fill-opacity="0.4"/>
<rect x="185" width="24" height="292" fill="#addffb" fill-opacity="0.4"/>
<rect x="83" y="249" width="161" height="24" fill="#addffb" fill-opacity="0.4"/>
</svg>
