<svg width="231" height="233" viewBox="0 0 231 233" fill="none" xmlns="http://www.w3.org/2000/svg">
<path d="M231 215L231 191L0 191L-1.04907e-06 215L231 215Z" fill="#ADDFFB" fill-opacity="0.4"/>
<path d="M19 233L45 233L45.0001 0L19 -2.27299e-06L19 233Z" fill="#ADDFFB" fill-opacity="0.4"/>
<path d="M73.2727 154V60.9091H129.455V70.9091H84.5455V102.364H126.545V112.364H84.5455V144H130.182V154H73.2727ZM156.318 84.1818L173.045 112.727L189.773 84.1818H202.136L179.591 119.091L202.136 154H189.773L173.045 126.909L156.318 154H143.955L166.136 119.091L143.955 84.1818H156.318Z" fill="#2f1f49" fill-opacity="0.8"/>
</svg>
