<svg width="230" height="292" viewBox="0 0 230 292" fill="none" xmlns="http://www.w3.org/2000/svg">
<path d="M141.273 198V104.909H172.727C180.03 104.909 186 106.227 190.636 108.864C195.303 111.47 198.758 115 201 119.455C203.242 123.909 204.364 128.879 204.364 134.364C204.364 139.848 203.242 144.833 201 149.318C198.788 153.803 195.364 157.379 190.727 160.045C186.091 162.682 180.152 164 172.909 164H150.364V154H172.545C177.545 154 181.561 153.136 184.591 151.409C187.621 149.682 189.818 147.348 191.182 144.409C192.576 141.439 193.273 138.091 193.273 134.364C193.273 130.636 192.576 127.303 191.182 124.364C189.818 121.424 187.606 119.121 184.545 117.455C181.485 115.758 177.424 114.909 172.364 114.909H152.545V198H141.273Z" fill="#2F1F49" fill-opacity="0.8"/>
<path d="M0 59H115H230V80H0V59Z" fill="#addffb" fill-opacity="0.4"/>
<rect y="217" width="230" height="21" fill="#addffb" fill-opacity="0.4"/>
<rect x="36" width="24" height="292" fill="#addffb" fill-opacity="0.4"/>
<rect x="84" width="26" height="292" fill="#addffb" fill-opacity="0.4"/>
</svg>
